<svg xmlns="http://www.w3.org/2000/svg" version="1.1" xmlns:xlink="http://www.w3.org/1999/xlink" xmlns:svgjs="http://svgjs.dev/svgjs" width="1000" height="1000" viewBox="0 0 1000 1000"><rect width="1000" height="1000" fill="#000000"></rect><g transform="matrix(0.7,0,0,0.7,150,219.1358699200045)"><svg viewBox="0 0 448 360" data-background-color="#ffbe79" preserveAspectRatio="xMidYMid meet" height="803" width="1000" xmlns="http://www.w3.org/2000/svg" xmlns:xlink="http://www.w3.org/1999/xlink"><g id="tight-bounds" transform="matrix(1,0,0,1,0,-0.11904140046539169)"><svg viewBox="0 0 448 360" height="360" width="448"><g><svg></svg></g><g><svg viewBox="0 0 448 360" height="360" width="448"><g><path transform="translate(36.9151,-7.08178) scale(0.00624,0.00624)" d="M25167 8301c221 0 400 179 400 400 0 221-179 400-400 400h-3824l-2753 2753c-156 156-409 156-566 0-156-156-156-409 0-566l2188-2188h-6475c-1847 0-3071 431-3819 1301-760 885-1068 2254-1068 4110 0 11 0 22-1 33l34 5884 2356-2356c156-156 409-156 566 0 156 156 156 409 0 566l-2915 2915c33 5746 31 11443-2 17189 4087 4041 8117 8068 12157 12154h4070c221 0 400 179 400 400 0 221-179 400-400 400h-3279l4160 4208 1-1c1313 1313 2498 2062 3660 2151 1146 87 2316-474 3622-1779l4579-4579h-3323c-221 0-400-179-400-400 0-221 179-400 400-400h4123l2666-2666c156-156 409-156 566 0 156 156 156 409 0 566l-2101 2101h6475c1847 0 3071-431 3819-1301 760-885 1068-2254 1068-4110h2l-34-5917-2568 2568c-156 156-409 156-566 0-156-156-156-409 0-566l3127-3127c-33-5746-31-11443 2-17189-4087-4041-8117-8068-12157-12154h-4193c-221 0-400-179-400-400 0-221 179-400 400-400h3402l-4141-4189c-7-6-13-12-20-18-1313-1313-2498-2062-3660-2151-1146-87-2316 474-3622 1779l-4579 4579h3024zM13737 8301h7275l5144-5144c1483-1483 2856-2116 4247-2010 1374 104 2719 934 4167 2382 8 8 15 15 22 23l4695 4749h6977c2096 0 3515 524 4425 1583 898 1045 1261 2582 1261 4629 0 13-1 25-2 37l-36 6373 4559 4508 1-1c1448 1448 2278 2792 2382 4167 106 1391-528 2764-2010 4247l-4934 4934 38 6710h2c0 2047-364 3584-1261 4629-910 1059-2329 1583-4425 1583h-7275l-5144 5144c-1483 1483-2856 2116-4247 2010-1374-104-2719-934-4167-2382l1-1-4718-4772h-6977c-2096 0-3515-524-4425-1583-898-1045-1261-2582-1261-4629h2l37-6410-4537-4485c-8-7-16-14-23-22-1448-1448-2278-2792-2382-4167-106-1391 528-2764 2010-4247l4934-4934-38-6672c-1-12-2-25-2-37 0-2047 364-3584 1261-4629 910-1059 2329-1583 4425-1583zM8141 30000l-44-7653-4374 4374c-1305 1305-1866 2476-1779 3622 88 1162 838 2348 2151 3660 6 6 13 13 18 20l3983 3937 45-7961zM8882 39860l-32 5627h2c0 1857 308 3226 1068 4110 748 871 1972 1301 3819 1301h6186l-5380-5442-5662-5597zM46264 9101h-6186l5380 5442 5662 5597 32-5594c-1-11-1-22-1-33 0-1857-308-3226-1068-4110-748-871-1972-1301-3819-1301zM51906 22039l-45 7961 44 7653 4374-4374c1305-1305 1866-2476 1779-3622-88-1163-838-2348-2151-3660l1-1-4002-3956z" fill="#374151" fill-rule="nonzero" stroke="none" stroke-width="1" stroke-linecap="butt" stroke-linejoin="miter" stroke-miterlimit="10" stroke-dasharray="" stroke-dashoffset="0" font-family="none" font-weight="none" font-size="none" text-anchor="none" style="mix-blend-mode: normal" data-fill-palette-color="tertiary"></path></g><g transform="matrix(1,0,0,1,112,90.08999999999999)"><svg viewBox="0 0 224 179.82000000000002" height="179.82000000000002" width="224"><g><svg viewBox="0 0 224 179.82000000000002" height="179.82000000000002" width="224"><g><svg viewBox="0 0 224 179.82000000000002" height="179.82000000000002" width="224"><g><svg viewBox="0 0 224 179.82000000000002" height="179.82000000000002" width="224"><g><svg viewBox="0 0 224 179.82000000000002" height="179.82000000000002" width="224"><g transform="matrix(1,0,0,1,50.867783575736524,36.93002441959793)"><svg viewBox="0 0 122.26443284852695 105.95995116080417" height="105.95995116080417" width="122.26443284852695"><g><circle r="53" cx="61.132216424263476" cy="52.97997558040208" fill="#ffffff" data-fill-palette-color="accent"></circle><svg xmlns="http://www.w3.org/2000/svg" xmlns:xlink="http://www.w3.org/1999/xlink" version="1.1" x="19.79898987322333" y="19.79898987322333" viewBox="0.35833249999999595 0.3587183000000067 89.28326340000001 89.2876563" enable-background="new 0 0 90 90" xml:space="preserve" height="66.3619714143575" width="82.66645310208028" class="icon-an-0" data-fill-palette-color="quaternary" id="an-0"><polygon points="57.928,58.169 57.875,76.027 45.397,63.548 45.397,45.639 " fill="#ffbe79" data-fill-palette-color="quaternary"></polygon><polygon points="76.027,57.875 58.475,57.927 45.826,45.279 63.432,45.279 " fill="#ffbe79" data-fill-palette-color="quaternary"></polygon><polygon points="76.027,32.125 63.432,44.721 45.707,44.721 58.355,32.073 " fill="#ffbe79" data-fill-palette-color="quaternary"></polygon><polygon points="44.838,45.59 44.838,63.314 32.125,76.027 32.074,58.355 " fill="#ffbe79" data-fill-palette-color="quaternary"></polygon><polygon points="57.928,31.712 45.397,44.243 45.397,26.452 57.875,13.974 " fill="#ffbe79" data-fill-palette-color="quaternary"></polygon><polygon points="44.838,26.687 44.838,44.291 32.074,31.526 32.125,13.974 " fill="#ffbe79" data-fill-palette-color="quaternary"></polygon><polygon points="44.479,44.721 26.569,44.721 13.974,32.125 31.832,32.073 " fill="#ffbe79" data-fill-palette-color="quaternary"></polygon><polygon points="44.36,45.279 31.712,57.927 13.974,57.875 26.569,45.279 " fill="#ffbe79" data-fill-palette-color="quaternary"></polygon><rect x="58.48" y="58.48" width="18.049" height="18.049" fill="#ffbe79" data-fill-palette-color="quaternary"></rect><polygon points="76.527,13.474 76.527,31.516 58.914,31.516 58.912,31.518 58.484,31.516 58.484,13.474 " fill="#ffbe79" data-fill-palette-color="quaternary"></polygon><polygon points="31.518,30.971 31.516,31.516 13.474,31.516 13.474,13.474 31.516,13.474 31.516,30.968 " fill="#ffbe79" data-fill-palette-color="quaternary"></polygon><rect x="13.471" y="58.48" width="18.05" height="18.049" fill="#ffbe79" data-fill-palette-color="quaternary"></rect><rect x="67.864" y="35.981" transform="matrix(0.7071 -0.7071 0.7071 0.7071 -9.3022 67.5465)" width="18.042" height="18.042" fill="#ffbe79" data-fill-palette-color="quaternary"></rect><rect x="35.979" y="4.094" transform="matrix(0.7071 -0.7071 0.7071 0.7071 3.9068 35.6621)" width="18.042" height="18.042" fill="#ffbe79" data-fill-palette-color="quaternary"></rect><rect x="4.095" y="35.98" transform="matrix(0.7071 -0.7071 0.7071 0.7071 -27.9787 22.4536)" width="18.041" height="18.041" fill="#ffbe79" data-fill-palette-color="quaternary"></rect><rect x="35.98" y="67.865" transform="matrix(0.7071 -0.7071 0.7071 0.7071 -41.1877 54.3437)" width="18.04" height="18.041" fill="#ffbe79" data-fill-palette-color="quaternary"></rect></svg></g></svg></g><path d="M41.857 70.911L23.457 67.912 24.601 65.057 36.321 67.178C36.873 67.269 37.783 67.491 39.051 67.846V67.846L39.092 67.743C38.022 67.184 37.21 66.717 36.655 66.342V66.342L26.621 60.012 27.984 56.611 39.636 58.902C40.218 59.026 41.124 59.258 42.355 59.598V59.598L42.396 59.495C41.321 58.912 40.513 58.435 39.971 58.065V58.065L30.034 51.491 31.02 49.03 46.414 59.534 45.191 62.587 33.293 60.395C32.651 60.29 31.687 60.057 30.401 59.694V59.694L30.363 59.788C31.599 60.458 32.458 60.954 32.939 61.278V61.278L43.08 67.858ZM51.319 50.679L36.95 39.515 38.825 37.102 44.771 41.721 48.608 36.782 42.662 32.163 44.537 29.75 58.906 40.913 57.031 43.327 50.75 38.446 46.913 43.385 53.194 48.265ZM70.419 32.13C68.499 33.516 66.557 33.949 64.592 33.428 62.622 32.912 60.72 31.384 58.888 28.846V28.846C57.056 26.308 56.205 24.022 56.335 21.99 56.456 19.955 57.476 18.245 59.397 16.859V16.859C61.317 15.473 63.264 15.041 65.238 15.563 67.203 16.084 69.102 17.613 70.934 20.151V20.151C72.766 22.689 73.62 24.973 73.495 27.002 73.365 29.034 72.34 30.744 70.42 32.13ZM68.868 29.98C69.989 29.17 70.543 28.122 70.528 26.834 70.514 25.546 69.932 24.107 68.783 22.515V22.515L68.007 21.44C66.858 19.848 65.675 18.842 64.457 18.423 63.239 18.004 62.07 18.2 60.948 19.009V19.009C59.832 19.815 59.282 20.861 59.296 22.149 59.31 23.437 59.892 24.877 61.041 26.468V26.468L61.817 27.543C62.966 29.135 64.149 30.141 65.367 30.56 66.585 30.979 67.752 30.785 68.868 29.98ZM82.85 24.481L76.324 7.496 79.177 6.4 84.694 20.759 91.769 18.04 92.778 20.666ZM101.871 19.175L100.939 12.122 93.859 1.88 97.069 1.456 102.099 9.009 102.21 8.994 105.085 0.396 108.085 0 103.939 11.726 104.871 18.779ZM116.841 18.231L118.931 0.156 124.732 0.826C126.977 1.086 128.636 2.035 129.71 3.673 130.791 5.306 131.166 7.557 130.835 10.425V10.425C130.484 13.461 129.59 15.698 128.154 17.134 126.724 18.572 124.887 19.161 122.642 18.901V18.901ZM120.188 15.898L122.661 16.184C124.015 16.34 125.129 15.956 126.003 15.032 126.871 14.106 127.417 12.669 127.643 10.718V10.718L127.795 9.401C128 7.625 127.78 6.235 127.136 5.23 126.486 4.218 125.483 3.633 124.13 3.477V3.477L121.657 3.191ZM136.578 21.932L143.46 5.088 150.439 7.94C152.076 8.609 153.157 9.557 153.683 10.785 154.215 12.015 154.187 13.349 153.601 14.785V14.785C153.179 15.816 152.562 16.606 151.747 17.155 150.926 17.701 149.996 17.962 148.956 17.938V17.938L149.075 27.039 146.011 25.787 146.017 17.426 142.335 15.922 139.407 23.088ZM143.361 13.411L147.193 14.977C147.973 15.296 148.66 15.328 149.252 15.075 149.844 14.821 150.294 14.316 150.603 13.56V13.56C150.889 12.861 150.918 12.228 150.69 11.661 150.46 11.101 149.951 10.66 149.164 10.338V10.338L145.267 8.746ZM159.733 35.178C157.871 33.716 156.918 31.969 156.874 29.936 156.826 27.9 157.768 25.651 159.701 23.188V23.188C161.634 20.726 163.595 19.276 165.584 18.839 167.573 18.393 169.498 18.901 171.361 20.363V20.363C173.224 21.825 174.178 23.577 174.222 25.618 174.265 27.651 173.32 29.898 171.387 32.36V32.36C169.455 34.823 167.496 36.275 165.512 36.716 163.522 37.152 161.596 36.64 159.733 35.178ZM161.37 33.092C162.458 33.946 163.619 34.188 164.853 33.818 166.086 33.449 167.309 32.492 168.521 30.947V30.947L169.34 29.904C170.552 28.36 171.191 26.945 171.257 25.659 171.323 24.372 170.812 23.302 169.724 22.449V22.449C168.642 21.599 167.483 21.359 166.25 21.728 165.016 22.098 163.793 23.055 162.581 24.6V24.6L161.763 25.642C160.551 27.187 159.911 28.602 159.845 29.888 159.779 31.174 160.288 32.242 161.37 33.092ZM170.464 44.969L185.087 34.141 188.953 39.363C190.029 40.816 190.458 42.228 190.239 43.599 190.025 44.966 189.263 46.135 187.95 47.106V47.106C187.056 47.769 186.136 48.165 185.19 48.294 184.24 48.427 183.327 48.288 182.452 47.878 181.578 47.468 180.803 46.807 180.129 45.897V45.897L178.081 43.131 172.282 47.425ZM180.253 41.523L182.162 44.102C182.676 44.796 183.281 45.183 183.978 45.262 184.676 45.342 185.379 45.119 186.09 44.593V44.593C186.762 44.096 187.151 43.51 187.256 42.836 187.362 42.162 187.157 41.478 186.643 40.783V40.783L184.734 38.205ZM182.433 66.177C182.008 65.112 181.808 64.066 181.834 63.039 181.857 62.005 182.157 61.075 182.735 60.249 183.304 59.418 184.165 58.773 185.318 58.312V58.312L185.846 58.134 187.006 61.038 186.544 61.19C185.679 61.535 185.104 62.078 184.818 62.817 184.529 63.549 184.562 64.357 184.914 65.241V65.241C185.302 66.212 185.803 66.855 186.415 67.17 187.024 67.493 187.666 67.52 188.343 67.25V67.25C188.92 67.019 189.33 66.674 189.574 66.213 189.819 65.752 189.951 65.256 189.972 64.725 189.998 64.191 189.989 63.457 189.943 62.524V62.524C189.856 61.36 189.851 60.385 189.929 59.598 190.01 58.818 190.283 58.065 190.75 57.342 191.225 56.621 192.004 56.045 193.088 55.612V55.612C194.586 55.014 195.945 55.081 197.168 55.813 198.394 56.536 199.326 57.697 199.964 59.295V59.295C200.6 60.886 200.712 62.349 200.3 63.683 199.889 65.017 198.862 66.012 197.221 66.667V66.667L196.93 66.784 195.781 63.908 196.044 63.803C196.802 63.5 197.311 63.028 197.571 62.387 197.833 61.752 197.81 61.049 197.502 60.278V60.278C197.179 59.47 196.741 58.9 196.187 58.569 195.634 58.238 195.053 58.194 194.445 58.437V58.437C193.957 58.632 193.608 58.942 193.4 59.367 193.198 59.789 193.089 60.261 193.073 60.783 193.05 61.308 193.07 62.005 193.134 62.873V62.873C193.236 64.075 193.253 65.074 193.187 65.871 193.126 66.665 192.859 67.433 192.385 68.174 191.911 68.916 191.138 69.5 190.067 69.928V69.928C188.231 70.661 186.683 70.677 185.421 69.975 184.158 69.266 183.162 68.001 182.433 66.177ZM36.023 119.95L37.105 119.612 36.432 117.458 32.066 118.821 32.376 119.816 31.333 120.141 30.332 116.934 31.375 116.609 31.674 117.565 41.054 114.637 40.755 113.68 41.789 113.358 44.026 120.525 41.206 121.406 40.88 120.363 42.667 119.805 41.446 115.892 37.475 117.132 38.148 119.286 39.23 118.948 39.555 119.992 36.348 120.993ZM33.533 126.28V126.28C33.212 125.515 33.43 124.973 34.189 124.654V124.654L39.47 122.436 39.07 121.484 40.078 121.061 40.979 123.207 34.588 125.892 37.657 128.049 41.202 126.56 40.901 125.841 41.908 125.418 42.716 127.34 36.325 130.025 36.713 130.949 35.705 131.372 34.811 129.245 36.463 128.551 33.906 126.749C33.741 126.636 33.617 126.479 33.533 126.28ZM46.356 133.755V133.755C46.76 134.48 46.603 135.042 45.884 135.443V135.443L40.784 138.287 41.281 139.18 40.327 139.712 38.824 137.016 39.778 136.484 40.153 137.156 45.35 134.258 42.048 132.449 38.6 134.371 38.985 135.061 38.03 135.593 36.522 132.888 37.477 132.356 37.97 133.24 43.07 130.396 42.577 129.512 43.514 128.99 44.637 131.005 43.179 131.818 45.934 133.33C46.11 133.425 46.251 133.566 46.356 133.755ZM46.075 144.502L44.418 145.647 42.151 142.367C41.714 141.735 41.697 141.205 42.099 140.779V140.779C42.221 140.646 42.359 140.526 42.514 140.419V140.419L46.785 137.467C47.151 137.214 47.508 137.119 47.856 137.182 48.208 137.242 48.531 137.483 48.822 137.905V137.905L51.02 141.085 49.347 142.241 48.725 141.342 49.483 140.819 47.774 138.346 42.987 141.654 44.696 144.127 45.453 143.603ZM54.646 140.931L55.435 141.908 53.167 143.739 53.981 144.746 53.083 145.471 52.27 144.463 47.79 148.081 48.743 149.262 47.893 149.949 47.047 148.901C46.746 148.529 46.619 148.172 46.665 147.832 46.711 147.491 46.972 147.128 47.45 146.742V146.742L51.481 143.487 50.737 142.566 51.635 141.841 52.379 142.762ZM56.393 147.4L51.278 152.049 51.979 152.82 51.17 153.555 48.911 151.069 49.719 150.334 50.4 151.083 54.706 147.169 54.026 146.42 54.835 145.685ZM58.137 144.94C58.287 145.105 58.351 145.302 58.331 145.53 58.316 145.754 58.223 145.943 58.053 146.097 57.883 146.251 57.689 146.323 57.47 146.313 57.25 146.302 57.064 146.212 56.909 146.042 56.755 145.873 56.683 145.678 56.694 145.459 56.704 145.24 56.794 145.053 56.964 144.899 57.134 144.744 57.333 144.673 57.562 144.684 57.791 144.685 57.983 144.771 58.137 144.94ZM55.536 157.717L53.384 155.677C52.993 155.306 52.799 154.951 52.805 154.612 52.815 154.277 52.975 153.946 53.286 153.618V153.618L56.83 149.88C57.123 149.571 57.433 149.391 57.761 149.34 58.084 149.283 58.461 149.459 58.891 149.868V149.868L61.043 151.908C61.469 152.311 61.665 152.678 61.631 153.009 61.597 153.339 61.434 153.658 61.141 153.967V153.967L57.598 157.705C57.287 158.033 56.964 158.211 56.631 158.239 56.298 158.267 55.933 158.093 55.536 157.717ZM58 150.529L53.997 154.752 56.428 157.056 60.431 152.833ZM67.311 156.728V156.728C67.967 157.236 68.043 157.815 67.539 158.466V158.466L63.964 163.083 64.772 163.709 64.103 164.573 61.662 162.683 62.332 161.819 62.94 162.29 66.583 157.585 62.836 157.218 60.419 160.338 61.043 160.821 60.374 161.686 57.926 159.79 58.595 158.925 59.395 159.545 62.97 154.928 62.17 154.309 62.827 153.461 64.651 154.873 63.629 156.193 66.756 156.503C66.955 156.521 67.14 156.596 67.311 156.728ZM70.884 167.499L71.745 168.031 71.171 168.961 66.427 166.031C65.962 165.744 65.706 165.459 65.659 165.176V165.176C65.615 164.926 65.732 164.575 66.013 164.121V164.121L66.326 163.613C66.528 163.286 66.705 163.09 66.856 163.025V163.025C67.078 162.924 67.477 162.873 68.056 162.874V162.874L72.201 162.865 72.823 161.857 70.154 160.209 69.67 160.992 68.8 160.455 69.859 158.742 73.26 160.842C73.725 161.13 73.99 161.432 74.055 161.75 74.115 162.064 74.027 162.411 73.793 162.79V162.79ZM69.765 166.808L71.531 163.95 67.603 163.974 66.933 165.058ZM80.29 160.186L75.262 169.868 76.187 170.348 75.684 171.318 72.702 169.77 73.206 168.8 74.104 169.266 78.633 160.546 77.735 160.079 78.234 159.118ZM87.403 164.291L86.446 163.996 86.765 162.961 89.115 163.685 90.304 171.369 95.575 165.676 97.935 166.404 97.616 167.438 96.649 167.14 93.754 176.531 94.721 176.829 94.399 177.873 91.179 176.881 91.501 175.836 92.497 176.143 94.923 168.271 90.199 173.328 89.241 173.033 88.207 166.148 85.766 174.069 86.762 174.376 86.44 175.42 83.229 174.431 83.551 173.386 84.509 173.681ZM98.863 178.615V178.615C98.043 178.487 97.697 178.017 97.823 177.204V177.204L98.704 171.544 97.684 171.385 97.852 170.305 100.152 170.663 99.086 177.513 102.533 176.032 103.124 172.232 102.354 172.112 102.522 171.032 104.582 171.352 103.516 178.202 104.506 178.356 104.338 179.436 102.058 179.081 102.333 177.311 99.458 178.544C99.275 178.624 99.077 178.648 98.863 178.615ZM111.715 177.471L111.657 178.462C111.603 179.398 111.118 179.839 110.202 179.786V179.786L106.332 179.561 106.472 177.147 107.564 177.21 107.487 178.534 110.366 178.701 110.443 177.377 107.912 175.578C107.659 175.394 107.438 175.243 107.249 175.124 107.066 175.005 106.914 174.888 106.793 174.773V174.773C106.569 174.551 106.468 174.257 106.489 173.894V173.894L106.542 172.985C106.568 172.533 106.66 172.228 106.818 172.068V172.068C107.127 171.755 107.564 171.615 108.13 171.647V171.647L111.848 171.863 111.709 174.258 110.628 174.195 110.703 172.892 107.824 172.724 107.746 174.068 110.366 175.913C110.58 176.068 110.771 176.2 110.941 176.311 111.11 176.423 111.252 176.536 111.367 176.651V176.651C111.617 176.888 111.733 177.162 111.715 177.472ZM120.156 178.441L121.177 178.398 121.224 179.49 118.14 179.62 118.094 178.528 118.862 178.496 118.612 172.581 115.512 174.718 115.677 178.631 116.466 178.597 116.512 179.689 113.418 179.82 113.372 178.728 114.383 178.685 113.968 168.868 112.956 168.91 112.911 167.828 115.216 167.731 115.457 173.423 118.045 171.643C118.242 171.506 118.479 171.432 118.755 171.42 119.032 171.408 119.289 171.509 119.528 171.722 119.766 171.928 119.894 172.233 119.911 172.637V172.637ZM126.558 170.649V170.649C127.38 170.531 127.849 170.88 127.966 171.694V171.694L128.169 173.107 126.887 173.291 126.665 171.748 124.417 173.677 125.018 177.854 125.799 177.742 125.954 178.823 122.889 179.264 122.734 178.182 123.735 178.038 122.904 172.258 121.903 172.402 121.747 171.321 124.031 170.992 124.233 172.395 126.01 170.892C126.162 170.761 126.345 170.68 126.558 170.649ZM134.857 177.011L131.971 177.693C131.446 177.817 131.043 177.784 130.762 177.594 130.488 177.402 130.299 177.086 130.195 176.646V176.646L129.011 171.633C128.913 171.219 128.933 170.861 129.069 170.559 129.199 170.258 129.553 170.039 130.131 169.902V169.902L133.016 169.221C133.588 169.086 134.002 169.123 134.26 169.333 134.517 169.542 134.695 169.854 134.792 170.268V170.268L135.976 175.281C136.08 175.721 136.053 176.088 135.893 176.382 135.734 176.676 135.389 176.886 134.857 177.011ZM130.195 171.01L131.533 176.673 134.793 175.903 133.455 170.24ZM142.085 174.769L139.271 175.702C138.758 175.872 138.354 175.875 138.058 175.71 137.768 175.543 137.552 175.245 137.41 174.816V174.816L135.788 169.927C135.654 169.523 135.642 169.165 135.751 168.852 135.854 168.54 136.187 168.291 136.751 168.104V168.104L139.565 167.171C140.122 166.986 140.538 166.987 140.813 167.173 141.088 167.359 141.293 167.653 141.426 168.057V168.057L143.048 172.946C143.19 173.375 143.195 173.743 143.062 174.05 142.93 174.357 142.604 174.597 142.085 174.769ZM136.912 169.202L138.744 174.725 141.924 173.671 140.092 168.148ZM150.21 162.119V162.119C150.965 161.76 151.52 161.951 151.874 162.695V162.695L154.384 167.967 155.307 167.527 155.776 168.514 152.99 169.841 152.52 168.854 153.214 168.524 150.656 163.151 148.79 166.057 150.564 169.785 151.277 169.446 151.747 170.433 149.161 171.664 148.691 170.677 149.386 170.346 149.369 170.287 146.828 164.951 144.961 167.88 146.736 171.608 147.448 171.268 147.918 172.255 145.122 173.586 144.652 172.6 145.566 172.165 143.056 166.892 142.143 167.327 141.681 166.359 143.765 165.367 144.417 166.738 145.949 164.327C146.054 164.157 146.205 164.026 146.4 163.933V163.933C147.149 163.576 147.701 163.77 148.054 164.513V164.513L148.241 164.906 149.768 162.509C149.874 162.339 150.021 162.209 150.21 162.119ZM161.45 155.048L162.323 154.39 164.345 157.073 163.473 157.73 162.79 156.825 160.988 158.184 163.742 161.836 167.015 159.369 165.888 157.874 166.76 157.216 168.545 159.584 162.549 164.104 161.891 163.231 162.691 162.628 156.776 154.782 155.976 155.385 155.324 154.52 161.321 150 163.099 152.36 162.227 153.018 161.1 151.523 157.827 153.99 160.33 157.311 162.132 155.953ZM169.051 157.613L169.705 156.994 169.066 153.39 165.829 152.65 165.145 153.297 164.394 152.504 165.511 151.446 168.912 152.197 168.251 148.851 169.39 147.772 170.142 148.566 169.495 149.178 170.058 152.45 173.614 153.291 174.261 152.679 175.012 153.473 173.917 154.51 170.241 153.601 170.956 157.314 169.803 158.406ZM168.652 144.222L169.491 143.289 171.658 145.239 172.524 144.276 173.382 145.048 172.515 146.011 176.795 149.863 177.811 148.735 178.623 149.466 177.723 150.466C177.402 150.822 177.07 151.005 176.727 151.013 176.383 151.022 175.983 150.821 175.527 150.41V150.41L171.676 146.944 170.884 147.824 170.026 147.052 170.818 146.172ZM176.135 139.613V139.613C176.642 138.957 177.222 138.88 177.873 139.383V139.383L179.002 140.255 178.21 141.28 176.977 140.328 176.706 143.277 180.046 145.857 180.528 145.232 181.393 145.901 179.5 148.351 178.635 147.683 179.254 146.882 174.633 143.312 174.014 144.113 173.149 143.445 174.56 141.619 175.681 142.485 175.91 140.169C175.928 139.969 176.003 139.784 176.135 139.613ZM186.199 136.806L186.739 135.95 187.663 136.533 184.689 141.25C184.397 141.712 184.11 141.965 183.827 142.01V142.01C183.577 142.052 183.227 141.931 182.776 141.646V141.646L182.271 141.328C181.945 141.123 181.751 140.944 181.687 140.792V140.792C181.588 140.57 181.541 140.17 181.547 139.591V139.591L181.577 135.446 180.575 134.815 178.902 137.468 179.681 137.96 179.136 138.824 177.432 137.75 179.564 134.369C179.856 133.907 180.161 133.644 180.479 133.582 180.794 133.525 181.14 133.616 181.517 133.853V133.853ZM185.497 137.919L182.655 136.127 182.643 140.055 183.721 140.735ZM189.176 129.252L190.967 130.175 189.14 133.719C188.788 134.403 188.329 134.667 187.764 134.513V134.513C187.589 134.468 187.418 134.403 187.25 134.316V134.316L182.635 131.938C182.239 131.734 181.988 131.464 181.88 131.128 181.767 130.789 181.827 130.391 182.062 129.935V129.935L183.833 126.499 185.641 127.431 185.14 128.402 184.322 127.98 182.945 130.652 188.118 133.318 189.494 130.646 188.676 130.224ZM181.99 123.372L182.481 122.216 185.163 123.355 185.669 122.163 186.732 122.613 186.226 123.806 191.526 126.055 192.119 124.658 193.125 125.085 192.6 126.324C192.412 126.765 192.158 127.045 191.836 127.165 191.514 127.285 191.07 127.225 190.505 126.985V126.985L185.735 124.961 185.273 126.051 184.211 125.6 184.673 124.51ZM193.133 117.699L194.071 118.021C194.958 118.325 195.252 118.912 194.955 119.779V119.779L193.697 123.446 191.41 122.661 191.764 121.627 193.018 122.057 193.954 119.329 192.7 118.899 190.286 120.853C190.041 121.047 189.836 121.219 189.67 121.369 189.507 121.513 189.353 121.628 189.21 121.714V121.714C188.935 121.87 188.626 121.888 188.281 121.77V121.77L187.419 121.475C186.992 121.328 186.722 121.157 186.611 120.962V120.962C186.392 120.58 186.375 120.121 186.559 119.585V119.585L187.767 116.063 190.036 116.841 189.684 117.865 188.45 117.441 187.514 120.17 188.787 120.606 191.269 118.579C191.475 118.415 191.654 118.266 191.807 118.133 191.96 118 192.107 117.893 192.248 117.813V117.813C192.544 117.637 192.839 117.599 193.133 117.699ZM29.04 93.453C29.04 92.281 29.99 91.331 31.162 91.331 32.335 91.331 33.285 92.281 33.285 93.453 33.285 94.625 32.335 95.575 31.162 95.575 29.99 95.575 29.04 94.625 29.04 93.453ZM192.823 93.453C192.823 92.281 193.773 91.331 194.945 91.331 196.117 91.331 197.067 92.281 197.067 93.453 197.067 94.625 196.117 95.575 194.945 95.575 193.773 95.575 192.823 94.625 192.823 93.453Z" fill="#ffffff" data-fill-palette-color="primary"></path></svg></g></svg></g></svg></g></svg></g></svg></g></svg></g><defs></defs></svg><rect width="448" height="360" fill="none" stroke="none" visibility="hidden"></rect></g></svg></g></svg>