<svg width="700" height="563" viewBox="0 0 700 563" fill="none" xmlns="http://www.w3.org/2000/svg">
<g clip-path="url('#clip0_3_4')">
<g clip-path="url('#clip1_3_4')">
<g clip-path="url('#clip2_3_4')">
<path d="M303.091 69.7698C305.245 69.7698 306.989 71.5138 306.989 73.667C306.989 75.8202 305.245 77.5643 303.091 77.5643H265.834L239.011 104.387C237.491 105.907 235.026 105.907 233.497 104.387C231.977 102.867 231.977 100.402 233.497 98.8723L254.815 77.5545H191.728C173.733 77.5545 161.807 81.7538 154.519 90.2302C147.115 98.8528 144.114 112.191 144.114 130.274C144.114 130.381 144.114 130.489 144.104 130.596L144.435 187.924L167.39 164.969C168.91 163.449 171.375 163.449 172.905 164.969C174.425 166.489 174.425 168.954 172.905 170.484L144.504 198.885C144.825 254.869 144.806 310.375 144.484 366.359C184.304 405.73 223.569 444.966 262.931 484.776H302.585C304.738 484.776 306.482 486.52 306.482 488.673C306.482 490.826 304.738 492.57 302.585 492.57H270.637L311.168 533.569L311.178 533.559C323.971 546.352 335.516 553.65 346.838 554.517C358.003 555.364 369.403 549.898 382.127 537.184L426.741 492.57H394.365C392.211 492.57 390.467 490.826 390.467 488.673C390.467 486.52 392.211 484.776 394.365 484.776H434.535L460.51 458.801C462.03 457.281 464.495 457.281 466.025 458.801C467.545 460.321 467.545 462.786 466.025 464.315L445.555 484.786H508.641C526.636 484.786 538.562 480.586 545.85 472.11C553.254 463.487 556.255 450.149 556.255 432.066H556.275L555.944 374.416L530.923 399.436C529.403 400.956 526.938 400.956 525.409 399.436C523.889 397.916 523.889 395.451 525.409 393.922L555.875 363.455C555.554 307.471 555.573 251.965 555.895 195.981C516.075 156.61 476.81 117.374 437.448 77.5643H396.596C394.442 77.5643 392.698 75.8202 392.698 73.667C392.698 71.5138 394.442 69.7698 396.596 69.7698H429.742L389.396 28.9561C389.327 28.8976 389.269 28.8392 389.201 28.7807C376.408 15.9881 364.863 8.69051 353.541 7.82337C342.376 6.97573 330.976 12.4416 318.252 25.1563L273.638 69.7698H303.101H303.091ZM191.728 69.7698H262.609L312.727 19.6515C327.176 5.20249 340.554 -0.964874 354.106 0.0678907C367.493 1.08117 380.598 9.16791 394.706 23.2759C394.783 23.3538 394.852 23.422 394.92 23.5L440.664 69.7698H508.641C529.062 69.7698 542.888 74.8752 551.754 85.1931C560.503 95.3746 564.04 110.35 564.04 130.294C564.04 130.42 564.03 130.537 564.021 130.654L563.67 192.747L608.088 236.669L608.098 236.659C622.206 250.767 630.293 263.861 631.306 277.258C632.339 290.811 626.162 304.188 611.723 318.637L563.65 366.709L564.021 432.085H564.04C564.04 452.029 560.494 467.004 551.754 477.186C542.888 487.504 529.062 492.609 508.641 492.609H437.76L387.642 542.728C373.193 557.176 359.816 563.344 346.263 562.311C332.876 561.298 319.772 553.211 305.664 539.103L305.673 539.093L259.706 492.599H191.728C171.307 492.599 157.481 487.494 148.615 477.176C139.866 466.995 136.329 452.02 136.329 432.076H136.349L136.709 369.622L92.5048 325.925C92.4269 325.857 92.3489 325.788 92.2807 325.71C78.1728 311.602 70.086 298.508 69.0728 285.111C68.04 271.558 74.2171 258.181 88.6563 243.732L136.729 195.66L136.358 130.654C136.349 130.537 136.339 130.411 136.339 130.294C136.339 110.35 139.885 95.3746 148.625 85.1931C157.491 74.8752 171.316 69.7698 191.738 69.7698H191.728ZM137.206 281.185L136.777 206.621L94.1612 249.237C81.4465 261.952 75.9806 273.361 76.8282 284.526C77.6856 295.848 84.9929 307.403 97.7856 320.186C97.844 320.245 97.9122 320.313 97.9609 320.381L136.768 358.739L137.206 281.175V281.185ZM144.426 377.251L144.114 432.076H144.133C144.133 450.168 147.134 463.507 154.539 472.12C161.827 480.606 173.752 484.795 191.748 484.795H252.018L199.601 431.773L144.435 377.242L144.426 377.251ZM508.641 77.5643H448.37L500.788 130.586L555.953 185.118L556.265 130.615C556.255 130.508 556.255 130.401 556.255 130.294C556.255 112.201 553.254 98.8626 545.85 90.2497C538.562 81.7635 526.636 77.574 508.641 77.574V77.5643ZM563.611 203.62L563.173 281.185L563.602 355.748L606.218 313.132C618.932 300.417 624.398 289.008 623.551 277.843C622.693 266.512 615.386 254.966 602.593 242.183L602.603 242.173L563.611 203.63V203.62Z" fill="#374151"></path>
<g clip-path="url('#clip3_3_4')">
<g clip-path="url('#clip4_3_4')">
<g clip-path="url('#clip5_3_4')">
<g clip-path="url('#clip6_3_4')">
<g clip-path="url('#clip7_3_4')">
<g clip-path="url('#clip8_3_4')">
<path d="M350 363.754C395.704 363.754 432.754 326.704 432.754 281C432.754 235.296 395.704 198.246 350 198.246C304.296 198.246 267.246 235.296 267.246 281C267.246 326.704 304.296 363.754 350 363.754Z" fill="white"></path>
<g clip-path="url('#clip9_3_4')">
<path d="M365.003 296.279L364.941 317.003L350.461 302.522V281.739L365.003 296.279Z" fill="#FFBE79"></path>
<path d="M386.006 295.938L365.638 295.999L350.959 281.321H371.39L386.006 295.938Z" fill="#FFBE79"></path>
<path d="M386.006 266.056L371.39 280.673H350.821L365.498 265.995L386.006 266.056Z" fill="#FFBE79"></path>
<path d="M349.812 281.682V302.25L335.059 317.003L335 296.495L349.812 281.682Z" fill="#FFBE79"></path>
<path d="M365.003 265.577L350.461 280.119V259.472L364.941 244.992L365.003 265.577Z" fill="#FFBE79"></path>
<path d="M349.812 259.745V280.174L335 265.361L335.059 244.992L349.812 259.745Z" fill="#FFBE79"></path>
<path d="M349.395 280.673H328.611L313.995 266.056L334.719 265.995L349.395 280.673Z" fill="#FFBE79"></path>
<path d="M349.257 281.321L334.58 295.999L313.995 295.938L328.611 281.321H349.257Z" fill="#FFBE79"></path>
<path d="M386.589 296.64H365.643V317.586H386.589V296.64Z" fill="#FFBE79"></path>
<path d="M386.587 244.412V265.349H366.147L366.145 265.351L365.648 265.349V244.412H386.587Z" fill="#FFBE79"></path>
<path d="M334.354 264.717L334.352 265.349H313.415V244.412H334.352V264.713L334.354 264.717Z" fill="#FFBE79"></path>
<path d="M334.358 296.64H313.411V317.586H334.358V296.64Z" fill="#FFBE79"></path>
<path d="M387.001 266.195L372.196 280.999L387.001 295.804L401.806 280.999L387.001 266.195Z" fill="#FFBE79"></path>
<path d="M350 229.192L335.195 243.996L350 258.801L364.805 243.996L350 229.192Z" fill="#FFBE79"></path>
<path d="M312.998 266.192L298.194 280.996L312.998 295.8L327.802 280.996L312.998 266.192Z" fill="#FFBE79"></path>
<path d="M349.997 303.201L335.194 318.004L349.998 332.808L364.801 318.005L349.997 303.201Z" fill="#FFBE79"></path>
</g>
</g>
<path d="M240.48 251.335L211.75 246.653L213.536 242.195L231.836 245.507C232.698 245.649 234.118 245.995 236.098 246.55L236.162 246.389C234.492 245.516 233.224 244.787 232.357 244.201L216.69 234.318L218.818 229.007L237.012 232.584C237.92 232.778 239.335 233.14 241.257 233.671L241.321 233.51C239.643 232.6 238.381 231.855 237.535 231.278L222.019 221.013L223.559 217.17L247.595 233.571L245.685 238.338L227.108 234.916C226.105 234.752 224.6 234.388 222.592 233.821L222.533 233.968C224.463 235.014 225.804 235.788 226.555 236.294L242.389 246.568L240.48 251.335ZM255.253 219.745L232.818 202.314L235.745 198.546L245.029 205.758L251.02 198.047L241.736 190.834L244.664 187.067L267.1 204.497L264.172 208.266L254.365 200.645L248.374 208.356L258.181 215.976L255.253 219.745ZM285.076 190.783C282.078 192.947 279.046 193.623 275.978 192.81C272.902 192.004 269.932 189.618 267.072 185.655C264.211 181.693 262.882 178.123 263.085 174.95C263.274 171.773 264.867 169.103 267.866 166.939C270.864 164.775 273.904 164.1 276.986 164.915C280.054 165.729 283.02 168.116 285.88 172.079C288.74 176.042 290.074 179.608 289.879 182.776C289.676 185.949 288.074 188.619 285.076 190.783ZM282.654 187.426C284.404 186.161 285.27 184.525 285.246 182.514C285.224 180.503 284.315 178.256 282.521 175.77L281.31 174.092C279.516 171.606 277.669 170.035 275.767 169.381C273.865 168.727 272.04 169.033 270.288 170.296C268.545 171.554 267.687 173.188 267.709 175.199C267.73 177.21 268.639 179.458 270.433 181.942L271.645 183.621C273.439 186.107 275.286 187.677 277.188 188.332C279.09 188.986 280.912 188.683 282.654 187.426ZM304.486 178.84L294.296 152.32L298.751 150.608L307.365 173.028L318.412 168.783L319.987 172.883L304.486 178.84ZM334.185 170.555L332.729 159.543L321.675 143.551L326.687 142.889L334.541 154.682L334.714 154.659L339.203 141.234L343.887 140.616L337.414 158.924L338.869 169.937L334.185 170.555ZM357.559 169.081L360.822 140.859L369.88 141.905C373.385 142.311 375.975 143.793 377.652 146.351C379.34 148.9 379.926 152.415 379.409 156.893C378.861 161.633 377.465 165.126 375.223 167.368C372.99 169.614 370.122 170.533 366.616 170.127L357.559 169.081ZM362.785 165.438L366.646 165.885C368.76 166.129 370.499 165.529 371.864 164.086C373.219 162.64 374.072 160.397 374.425 157.35L374.662 155.294C374.982 152.521 374.639 150.351 373.633 148.782C372.618 147.201 371.052 146.288 368.94 146.044L365.078 145.598L362.785 165.438ZM388.376 174.86L399.121 148.56L410.018 153.013C412.574 154.058 414.262 155.538 415.083 157.455C415.914 159.376 415.87 161.459 414.955 163.701C414.296 165.31 413.333 166.544 412.061 167.401C410.779 168.254 409.327 168.661 407.703 168.624L407.888 182.834L403.104 180.879L403.114 167.824L397.365 165.476L392.793 176.665L388.376 174.86ZM398.967 161.555L404.95 164C406.168 164.499 407.241 164.548 408.165 164.153C409.089 163.757 409.792 162.968 410.274 161.788C410.721 160.697 410.766 159.708 410.41 158.823C410.051 157.949 409.256 157.26 408.027 156.757L401.943 154.271L398.967 161.555ZM424.53 195.542C421.622 193.259 420.134 190.532 420.066 187.357C419.991 184.178 421.462 180.667 424.48 176.821C427.498 172.977 430.56 170.713 433.665 170.031C436.771 169.334 439.777 170.127 442.686 172.41C445.594 174.693 447.084 177.428 447.153 180.615C447.22 183.789 445.744 187.298 442.726 191.142C439.71 194.988 436.651 197.255 433.553 197.943C430.446 198.624 427.439 197.825 424.53 195.542ZM427.086 192.285C428.785 193.618 430.597 193.996 432.524 193.419C434.449 192.842 436.359 191.348 438.251 188.936L439.53 187.307C441.422 184.897 442.42 182.687 442.523 180.679C442.626 178.67 441.828 176.999 440.13 175.667C438.44 174.34 436.631 173.965 434.705 174.541C432.779 175.119 430.869 176.613 428.977 179.026L427.699 180.653C425.807 183.065 424.808 185.274 424.705 187.282C424.602 189.29 425.396 190.958 427.086 192.285ZM441.285 210.83L464.117 193.923L470.154 202.076C471.834 204.345 472.503 206.55 472.162 208.691C471.827 210.825 470.638 212.65 468.587 214.166C467.192 215.202 465.755 215.82 464.278 216.021C462.795 216.229 461.369 216.012 460.003 215.372C458.638 214.732 457.428 213.699 456.376 212.279L453.178 207.96L444.124 214.664L441.285 210.83ZM456.569 205.449L459.55 209.476C460.353 210.56 461.297 211.164 462.386 211.287C463.476 211.412 464.573 211.064 465.683 210.243C466.733 209.467 467.34 208.552 467.504 207.499C467.669 206.447 467.349 205.379 466.547 204.294L463.566 200.268L456.569 205.449ZM459.973 243.944C459.31 242.281 458.997 240.647 459.038 239.044C459.074 237.429 459.542 235.977 460.445 234.688C461.333 233.39 462.678 232.383 464.478 231.663L465.302 231.385L467.114 235.92L466.392 236.157C465.042 236.696 464.144 237.543 463.697 238.697C463.246 239.84 463.298 241.102 463.847 242.482C464.453 243.998 465.235 245.002 466.191 245.494C467.142 245.998 468.144 246.04 469.201 245.619C470.102 245.258 470.742 244.72 471.123 244C471.506 243.28 471.712 242.506 471.745 241.676C471.785 240.843 471.771 239.697 471.699 238.24C471.563 236.422 471.556 234.9 471.677 233.671C471.804 232.453 472.23 231.278 472.959 230.149C473.701 229.023 474.917 228.124 476.61 227.447C478.949 226.514 481.071 226.618 482.98 227.761C484.895 228.89 486.35 230.703 487.346 233.198C488.339 235.682 488.514 237.967 487.871 240.049C487.229 242.132 485.625 243.686 483.063 244.709L482.609 244.891L480.815 240.401L481.225 240.237C482.409 239.764 483.204 239.027 483.61 238.026C484.019 237.034 483.983 235.937 483.502 234.733C482.998 233.471 482.314 232.581 481.449 232.065C480.585 231.548 479.678 231.479 478.729 231.858C477.967 232.163 477.422 232.647 477.097 233.31C476.782 233.969 476.611 234.706 476.586 235.521C476.551 236.341 476.582 237.429 476.682 238.785C476.841 240.662 476.868 242.221 476.764 243.466C476.669 244.706 476.252 245.905 475.512 247.062C474.772 248.22 473.565 249.132 471.893 249.8C469.026 250.945 466.609 250.97 464.639 249.874C462.667 248.767 461.112 246.792 459.973 243.944ZM231.37 327.904L233.06 327.376L232.009 324.013L225.192 326.141L225.676 327.695L224.047 328.202L222.485 323.195L224.113 322.688L224.58 324.18L239.226 319.608L238.759 318.114L240.373 317.611L243.866 328.802L239.463 330.177L238.954 328.549L241.744 327.678L239.838 321.568L233.638 323.504L234.688 326.867L236.378 326.34L236.885 327.97L231.878 329.533L231.37 327.904ZM227.483 337.788C226.981 336.593 227.322 335.747 228.507 335.249L236.752 331.786L236.128 330.299L237.702 329.639L239.109 332.99L229.13 337.182L233.922 340.55L239.457 338.225L238.987 337.102L240.559 336.442L241.821 339.443L231.842 343.635L232.448 345.078L230.874 345.738L229.478 342.417L232.057 341.334L228.065 338.52C227.807 338.344 227.614 338.098 227.483 337.788ZM247.504 349.459C248.135 350.591 247.89 351.469 246.767 352.095L238.804 356.535L239.58 357.93L238.091 358.76L235.744 354.551L237.233 353.72L237.819 354.769L245.933 350.244L240.778 347.42L235.394 350.421L235.995 351.498L234.504 352.329L232.15 348.105L233.641 347.275L234.41 348.655L242.373 344.214L241.604 342.834L243.067 342.019L244.82 345.165L242.544 346.435L246.845 348.796C247.12 348.944 247.34 349.164 247.504 349.459ZM247.065 366.239L244.478 368.027L240.939 362.906C240.256 361.919 240.23 361.091 240.857 360.426C241.048 360.219 241.263 360.031 241.505 359.864L248.174 355.255C248.746 354.86 249.303 354.712 249.846 354.81C250.396 354.904 250.9 355.28 251.355 355.939L254.787 360.904L252.174 362.709L251.203 361.305L252.387 360.489L249.718 356.627L242.244 361.793L244.912 365.654L246.094 364.836L247.065 366.239ZM260.448 360.664L261.68 362.189L258.139 365.048L259.41 366.62L258.008 367.752L256.738 366.178L249.743 371.828L251.231 373.672L249.904 374.744L248.583 373.108C248.113 372.527 247.915 371.97 247.987 371.439C248.058 370.906 248.466 370.34 249.212 369.737L255.506 364.655L254.345 363.216L255.747 362.084L256.908 363.523L260.448 360.664ZM263.176 370.764L255.189 378.023L256.284 379.227L255.021 380.375L251.494 376.493L252.755 375.345L253.818 376.515L260.542 370.404L259.48 369.234L260.743 368.086L263.176 370.764ZM265.899 366.923C266.133 367.181 266.233 367.488 266.202 367.844C266.178 368.194 266.033 368.489 265.768 368.73C265.502 368.97 265.199 369.083 264.857 369.067C264.514 369.05 264.224 368.909 263.982 368.644C263.741 368.38 263.629 368.076 263.646 367.734C263.661 367.392 263.802 367.1 264.067 366.859C264.333 366.617 264.644 366.506 265.001 366.524C265.359 366.525 265.658 366.659 265.899 366.923ZM261.838 386.873L258.478 383.688C257.867 383.109 257.564 382.554 257.574 382.025C257.589 381.502 257.839 380.985 258.325 380.473L263.858 374.636C264.316 374.154 264.8 373.873 265.312 373.793C265.816 373.704 266.405 373.979 267.076 374.618L270.436 377.803C271.101 378.432 271.408 379.005 271.354 379.522C271.301 380.037 271.047 380.535 270.589 381.018L265.057 386.854C264.572 387.366 264.067 387.644 263.547 387.688C263.028 387.732 262.458 387.46 261.838 386.873ZM265.685 375.65L259.435 382.244L263.231 385.841L269.481 379.247L265.685 375.65ZM280.223 385.329C281.247 386.122 281.366 387.026 280.579 388.043L274.997 395.251L276.259 396.229L275.214 397.578L271.403 394.627L272.449 393.278L273.398 394.013L279.086 386.667L273.236 386.094L269.462 390.965L270.436 391.72L269.392 393.07L265.569 390.11L266.614 388.759L267.863 389.727L273.445 382.518L272.196 381.552L273.222 380.228L276.07 382.433L274.474 384.494L279.357 384.978C279.667 385.006 279.956 385.123 280.223 385.329ZM285.802 402.147L287.146 402.977L286.25 404.429L278.843 399.854C278.117 399.406 277.717 398.961 277.644 398.519C277.575 398.129 277.758 397.581 278.196 396.872L278.685 396.079C279.001 395.568 279.277 395.262 279.513 395.161C279.859 395.003 280.482 394.924 281.386 394.925L287.858 394.911L288.829 393.337L284.662 390.764L283.906 391.987L282.548 391.148L284.202 388.474L289.512 391.752C290.238 392.202 290.652 392.674 290.753 393.17C290.847 393.66 290.709 394.202 290.344 394.794L285.802 402.147ZM284.055 401.068L286.812 396.605L280.679 396.643L279.633 398.335L284.055 401.068ZM300.488 390.728L292.638 405.846L294.082 406.595L293.297 408.11L288.641 405.693L289.427 404.178L290.83 404.906L297.901 391.29L296.499 390.561L297.278 389.061L300.488 390.728ZM311.595 397.138L310.1 396.677L310.598 395.061L314.268 396.191L316.124 408.189L324.354 399.3L328.039 400.437L327.541 402.051L326.031 401.586L321.511 416.249L323.021 416.714L322.518 418.344L317.49 416.796L317.993 415.164L319.548 415.643L323.336 403.352L315.96 411.248L314.464 410.787L312.85 400.037L309.039 412.405L310.594 412.884L310.091 414.514L305.077 412.97L305.58 411.338L307.076 411.799L311.595 397.138ZM329.488 419.503C328.208 419.303 327.667 418.569 327.864 417.3L329.24 408.462L327.647 408.214L327.909 406.528L331.501 407.087L329.836 417.782L335.218 415.47L336.141 409.537L334.939 409.349L335.201 407.663L338.418 408.163L336.753 418.858L338.299 419.099L338.037 420.785L334.477 420.231L334.906 417.467L330.417 419.392C330.131 419.517 329.822 419.555 329.488 419.503ZM349.555 417.717L349.464 419.264C349.38 420.726 348.623 421.414 347.193 421.331L341.15 420.98L341.369 417.211L343.074 417.309L342.953 419.377L347.449 419.637L347.569 417.57L343.617 414.761C343.222 414.474 342.877 414.238 342.582 414.052C342.296 413.866 342.059 413.684 341.87 413.504C341.52 413.158 341.362 412.698 341.395 412.132L341.478 410.712C341.519 410.007 341.662 409.53 341.909 409.281C342.391 408.792 343.074 408.573 343.957 408.623L349.763 408.961L349.546 412.7L347.858 412.602L347.975 410.567L343.48 410.305L343.358 412.403L347.449 415.284C347.783 415.526 348.081 415.732 348.347 415.906C348.61 416.08 348.832 416.257 349.012 416.436C349.402 416.806 349.583 417.234 349.555 417.718V417.717ZM362.735 419.231L364.329 419.164L364.402 420.869L359.587 421.072L359.515 419.367L360.714 419.317L360.324 410.082L355.484 413.418L355.741 419.528L356.973 419.475L357.045 421.18L352.214 421.384L352.142 419.679L353.721 419.612L353.073 404.284L351.493 404.35L351.422 402.66L355.021 402.509L355.398 411.396L359.439 408.617C359.746 408.403 360.116 408.288 360.547 408.269C360.98 408.25 361.381 408.408 361.754 408.74C362.126 409.062 362.326 409.538 362.352 410.169L362.735 419.231ZM372.731 407.065C374.014 406.881 374.746 407.426 374.929 408.697L375.246 410.903L373.244 411.19L372.898 408.781L369.388 411.793L370.326 418.315L371.546 418.14L371.788 419.828L367.002 420.516L366.76 418.827L368.323 418.602L367.025 409.577L365.462 409.802L365.219 408.114L368.785 407.601L369.1 409.791L371.875 407.444C372.112 407.24 372.398 407.113 372.731 407.065ZM385.689 416.999L381.182 418.063C380.363 418.257 379.734 418.205 379.295 417.909C378.867 417.609 378.572 417.116 378.409 416.429L376.561 408.601C376.408 407.955 376.439 407.396 376.651 406.924C376.854 406.454 377.407 406.113 378.31 405.899L382.814 404.835C383.707 404.625 384.354 404.682 384.757 405.01C385.158 405.337 385.436 405.824 385.587 406.47L387.436 414.297C387.598 414.984 387.556 415.557 387.306 416.016C387.058 416.475 386.519 416.803 385.689 416.999ZM378.409 407.629L380.499 416.471L385.589 415.269L383.5 406.426L378.409 407.629ZM396.974 413.498L392.581 414.955C391.78 415.22 391.149 415.225 390.687 414.967C390.234 414.706 389.897 414.241 389.675 413.571L387.142 405.938C386.933 405.307 386.914 404.748 387.085 404.259C387.245 403.772 387.765 403.383 388.646 403.091L393.04 401.634C393.909 401.346 394.559 401.347 394.988 401.638C395.418 401.928 395.738 402.387 395.945 403.018L398.478 410.651C398.7 411.321 398.708 411.896 398.5 412.375C398.294 412.855 397.785 413.229 396.974 413.498ZM388.897 404.806L391.758 413.429L396.723 411.783L393.863 403.16L388.897 404.806ZM409.661 393.746C410.84 393.186 411.706 393.484 412.259 394.646L416.178 402.877L417.619 402.19L418.351 403.731L414.001 405.803L413.267 404.262L414.351 403.747L410.357 395.358L407.443 399.895L410.213 405.716L411.327 405.187L412.061 406.728L408.023 408.65L407.289 407.109L408.374 406.592L408.348 406.5L404.38 398.168L401.465 402.741L404.236 408.562L405.348 408.031L406.082 409.573L401.716 411.651L400.982 410.111L402.41 409.432L398.491 401.199L397.065 401.878L396.344 400.367L399.598 398.818L400.616 400.958L403.008 397.194C403.172 396.928 403.407 396.724 403.712 396.579C404.881 396.021 405.743 396.324 406.294 397.484L406.586 398.098L408.971 394.355C409.136 394.09 409.366 393.887 409.661 393.746ZM427.211 382.706L428.574 381.678L431.731 385.868L430.369 386.893L429.303 385.48L426.489 387.602L430.789 393.304L435.9 389.453L434.14 387.118L435.502 386.091L438.289 389.788L428.927 396.846L427.899 395.483L429.148 394.541L419.913 382.29L418.664 383.232L417.646 381.881L427.009 374.824L429.785 378.509L428.424 379.536L426.664 377.202L421.554 381.054L425.462 386.239L428.276 384.119L427.211 382.706ZM439.079 386.711L440.1 385.744L439.102 380.117L434.048 378.962L432.98 379.972L431.807 378.734L433.551 377.082L438.862 378.254L437.83 373.03L439.608 371.345L440.782 372.585L439.772 373.54L440.651 378.649L446.203 379.962L447.214 379.007L448.386 380.247L446.677 381.866L440.937 380.446L442.053 386.244L440.253 387.949L439.079 386.711ZM438.456 365.802L439.766 364.345L443.149 367.39L444.502 365.886L445.841 367.092L444.487 368.595L451.17 374.61L452.757 372.849L454.024 373.99L452.619 375.551C452.118 376.107 451.6 376.393 451.064 376.406C450.527 376.42 449.902 376.106 449.19 375.464L443.177 370.052L441.941 371.426L440.601 370.221L441.838 368.847L438.456 365.802ZM450.14 358.606C450.931 357.581 451.837 357.461 452.853 358.247L454.616 359.608L453.38 361.209L451.454 359.722L451.031 364.327L456.246 368.355L456.999 367.379L458.349 368.424L455.394 372.249L454.043 371.206L455.01 369.955L447.794 364.381L446.828 365.632L445.477 364.589L447.68 361.738L449.431 363.09L449.788 359.474C449.816 359.162 449.934 358.873 450.14 358.606ZM465.854 354.223L466.697 352.886L468.139 353.797L463.496 361.162C463.04 361.883 462.592 362.278 462.15 362.348C461.76 362.414 461.213 362.225 460.509 361.78L459.72 361.283C459.211 360.963 458.908 360.684 458.809 360.447C458.654 360.1 458.581 359.475 458.59 358.571L458.637 352.099L457.072 351.114L454.46 355.257L455.676 356.025L454.825 357.374L452.165 355.697L455.494 350.418C455.95 349.696 456.426 349.286 456.922 349.189C457.414 349.1 457.954 349.242 458.543 349.612L465.854 354.223ZM464.757 355.961L460.32 353.163L460.301 359.296L461.984 360.358L464.757 355.961ZM470.502 342.428L473.298 343.869L470.446 349.403C469.896 350.471 469.179 350.883 468.297 350.643C468.024 350.572 467.757 350.471 467.495 350.335L460.289 346.622C459.67 346.304 459.279 345.882 459.11 345.357C458.933 344.828 459.027 344.207 459.394 343.495L462.159 338.13L464.982 339.585L464.2 341.101L462.923 340.442L460.773 344.614L468.85 348.777L470.998 344.605L469.721 343.946L470.502 342.428ZM459.282 333.247L460.048 331.442L464.236 333.221L465.026 331.359L466.686 332.062L465.896 333.925L474.171 337.436L475.097 335.255L476.668 335.922L475.848 337.856C475.554 338.545 475.158 338.982 474.655 339.17C474.152 339.357 473.459 339.263 472.577 338.888L465.129 335.728L464.408 337.43L462.749 336.726L463.471 335.024L459.282 333.247ZM476.68 324.389L478.145 324.892C479.53 325.367 479.989 326.283 479.525 327.637L477.561 333.363L473.99 332.137L474.543 330.523L476.501 331.194L477.962 326.934L476.004 326.263L472.235 329.314C471.852 329.617 471.532 329.886 471.273 330.12C471.019 330.345 470.778 330.524 470.555 330.658C470.125 330.902 469.643 330.93 469.104 330.746L467.758 330.285C467.092 330.056 466.67 329.789 466.497 329.484C466.155 328.888 466.128 328.171 466.416 327.334L468.302 321.835L471.845 323.05L471.295 324.649L469.368 323.987L467.907 328.248L469.894 328.928L473.77 325.763C474.091 325.507 474.371 325.275 474.61 325.067C474.849 324.859 475.078 324.692 475.298 324.567C475.761 324.293 476.221 324.233 476.68 324.389ZM220.467 286.532C220.467 284.702 221.951 283.219 223.78 283.219C225.612 283.219 227.095 284.702 227.095 286.532C227.095 288.362 225.612 289.845 223.78 289.845C221.951 289.845 220.467 288.362 220.467 286.532ZM476.196 286.532C476.196 284.702 477.679 283.219 479.509 283.219C481.339 283.219 482.823 284.702 482.823 286.532C482.823 288.362 481.339 289.845 479.509 289.845C477.679 289.845 476.196 288.362 476.196 286.532Z" fill="white"></path>
</g>
</g>
</g>
</g>
</g>
</g>
</g>
</g>
<defs>
<clipPath id="clip0_3_4">
<rect width="700" height="562.1" fill="white" transform="translate(0 0.135864)"></rect>
</clipPath>
<clipPath id="clip1_3_4">
<rect width="699.502" height="562.1" fill="white" transform="translate(0.248886 -0.0499878)"></rect>
</clipPath>
<clipPath id="clip2_3_4">
<rect width="699.502" height="562.1" fill="white" transform="translate(0.248886 -0.0499878)"></rect>
</clipPath>
<clipPath id="clip3_3_4">
<rect width="349.751" height="280.769" fill="white" transform="translate(175.124 140.616)"></rect>
</clipPath>
<clipPath id="clip4_3_4">
<rect width="349.751" height="280.769" fill="white" transform="translate(175.124 140.616)"></rect>
</clipPath>
<clipPath id="clip5_3_4">
<rect width="349.751" height="280.769" fill="white" transform="translate(175.124 140.616)"></rect>
</clipPath>
<clipPath id="clip6_3_4">
<rect width="349.751" height="280.769" fill="white" transform="translate(175.124 140.616)"></rect>
</clipPath>
<clipPath id="clip7_3_4">
<rect width="349.751" height="280.769" fill="white" transform="translate(175.124 140.616)"></rect>
</clipPath>
<clipPath id="clip8_3_4">
<rect width="190.902" height="165.445" fill="white" transform="translate(254.549 198.278)"></rect>
</clipPath>
<clipPath id="clip9_3_4">
<rect width="129.074" height="103.617" fill="white" transform="translate(285.463 229.192)"></rect>
</clipPath>
</defs>
</svg>
