<svg width="700" height="563" viewBox="0 0 700 563" fill="none" xmlns="http://www.w3.org/2000/svg">
<g clip-path="url(#clip0_3_4)">
<g clip-path="url(#clip1_3_4)">
<g clip-path="url(#clip2_3_4)">
<path d="M303.129 70.8126C305.282 70.8126 307.027 72.5566 307.027 74.7098C307.027 76.8631 305.282 78.6071 303.129 78.6071H265.872L239.049 105.43C237.529 106.95 235.064 106.95 233.535 105.43C232.015 103.91 232.015 101.445 233.535 99.9152L254.852 78.5973H191.766C173.771 78.5973 161.845 82.7966 154.557 91.273C147.153 99.8957 144.152 113.234 144.152 131.317C144.152 131.424 144.152 131.531 144.142 131.639L144.473 188.967L167.428 166.012C168.948 164.492 171.413 164.492 172.942 166.012C174.462 167.532 174.462 169.997 172.942 171.527L144.541 199.928C144.863 255.911 144.843 311.418 144.522 367.401C184.342 406.773 223.606 446.008 262.968 485.819H302.623C304.776 485.819 306.52 487.563 306.52 489.716C306.52 491.869 304.776 493.613 302.623 493.613H270.675L311.206 534.612L311.216 534.602C324.009 547.395 335.554 554.692 346.876 555.559C358.041 556.407 369.441 550.941 382.165 538.227L426.779 493.613H394.402C392.249 493.613 390.505 491.869 390.505 489.716C390.505 487.563 392.249 485.819 394.402 485.819H434.573L460.548 459.844C462.068 458.324 464.533 458.324 466.063 459.844C467.582 461.363 467.582 463.828 466.063 465.358L445.592 485.828H508.679C526.674 485.828 538.6 481.629 545.888 473.153C553.292 464.53 556.293 451.192 556.293 433.109H556.313L555.981 375.459L530.961 400.479C529.441 401.999 526.976 401.999 525.447 400.479C523.927 398.959 523.927 396.494 525.447 394.964L555.913 364.498C555.592 308.514 555.611 253.008 555.933 197.024C516.113 157.653 476.848 118.417 437.486 78.6071H396.633C394.48 78.6071 392.736 76.8631 392.736 74.7098C392.736 72.5566 394.48 70.8126 396.633 70.8126H429.779L389.433 29.9989C389.365 29.9404 389.307 29.882 389.238 29.8235C376.446 17.0309 364.9 9.73332 353.579 8.86619C342.413 8.01854 331.014 13.4844 318.289 26.1991L273.676 70.8126H303.139H303.129ZM191.766 70.8126H262.647L312.765 20.6943C327.214 6.2453 340.591 0.0779417 354.144 1.11071C367.531 2.12399 380.635 10.2107 394.743 24.3187C394.821 24.3966 394.889 24.4648 394.958 24.5428L440.701 70.8126H508.679C529.1 70.8126 542.926 75.918 551.792 86.2359C560.541 96.4174 564.078 111.392 564.078 131.337C564.078 131.463 564.068 131.58 564.058 131.697L563.708 193.79L608.126 237.711L608.136 237.702C622.244 251.81 630.331 264.904 631.344 278.301C632.377 291.854 626.2 305.231 611.76 319.68L563.688 367.752L564.058 433.128H564.078C564.078 453.072 560.531 468.047 551.792 478.229C542.926 488.547 529.1 493.652 508.679 493.652H437.798L387.68 543.77C373.231 558.219 359.853 564.387 346.301 563.354C332.914 562.341 319.809 554.254 305.701 540.146L305.711 540.136L259.743 493.642H191.766C171.345 493.642 157.519 488.537 148.653 478.219C139.904 468.037 136.367 453.062 136.367 433.118H136.386L136.747 370.665L92.5426 326.968C92.4647 326.899 92.3868 326.831 92.3186 326.753C78.2106 312.645 70.1238 299.551 69.1106 286.154C68.0778 272.601 74.2549 259.224 88.6941 244.775L136.766 196.703L136.396 131.697C136.386 131.58 136.377 131.453 136.377 131.337C136.377 111.392 139.923 96.4174 148.663 86.2359C157.529 75.918 171.354 70.8126 191.776 70.8126H191.766ZM137.244 282.227L136.815 207.664L94.199 250.28C81.4843 262.995 76.0184 274.404 76.866 285.569C77.7234 296.891 85.0307 308.446 97.8234 321.229C97.8818 321.287 97.95 321.356 97.9988 321.424L136.805 359.782L137.244 282.218V282.227ZM144.463 378.294L144.152 433.118H144.171C144.171 451.211 147.172 464.549 154.577 473.162C161.865 481.649 173.79 485.838 191.786 485.838H252.056L199.638 432.816L144.473 378.284L144.463 378.294ZM508.679 78.6071H448.408L500.826 131.629L555.991 186.161L556.303 131.658C556.293 131.551 556.293 131.444 556.293 131.337C556.293 113.244 553.292 99.9054 545.888 91.2925C538.6 82.8063 526.674 78.6168 508.679 78.6168V78.6071ZM563.649 204.663L563.211 282.227L563.639 356.791L606.256 314.175C618.97 301.46 624.436 290.051 623.588 278.886C622.731 267.554 615.424 256.009 602.631 243.226L602.641 243.216L563.649 204.673V204.663Z" fill="#374151"/>
<g clip-path="url(#clip3_3_4)">
<g clip-path="url(#clip4_3_4)">
<g clip-path="url(#clip5_3_4)">
<g clip-path="url(#clip6_3_4)">
<g clip-path="url(#clip7_3_4)">
<path d="M350.497 392.764C412.023 392.764 461.9 342.887 461.9 281.361C461.9 219.835 412.023 169.958 350.497 169.958C288.97 169.958 239.094 219.835 239.094 281.361C239.094 342.887 288.97 392.764 350.497 392.764Z" fill="white"/>
<g clip-path="url(#clip8_3_4)">
<path d="M370.694 301.93L370.611 329.829L351.117 310.334V282.355L370.694 301.93Z" fill="#FFBE79"/>
<path d="M398.969 301.471L371.548 301.552L351.787 281.793H379.292L398.969 301.471Z" fill="#FFBE79"/>
<path d="M398.969 261.243L379.292 280.921H351.601L371.361 261.162L398.969 261.243Z" fill="#FFBE79"/>
<path d="M350.244 282.279V309.968L330.383 329.829L330.303 302.221L350.244 282.279Z" fill="#FFBE79"/>
<path d="M370.694 260.598L351.117 280.175V252.381L370.611 232.887L370.694 260.598Z" fill="#FFBE79"/>
<path d="M350.244 252.748V280.25L330.303 260.307L330.383 232.887L350.244 252.748Z" fill="#FFBE79"/>
<path d="M349.683 280.921H321.703L302.027 261.243L329.925 261.162L349.683 280.921Z" fill="#FFBE79"/>
<path d="M349.497 281.793L329.738 301.552L302.027 301.471L321.703 281.793H349.497Z" fill="#FFBE79"/>
<path d="M399.753 302.416H371.556V330.613H399.753V302.416Z" fill="#FFBE79"/>
<path d="M399.75 232.106V260.292H372.234L372.231 260.295L371.562 260.292V232.106H399.75Z" fill="#FFBE79"/>
<path d="M329.435 259.44L329.431 260.292H301.245V232.106H329.431V259.436L329.435 259.44Z" fill="#FFBE79"/>
<path d="M329.439 302.416H301.241V330.613H329.439V302.416Z" fill="#FFBE79"/>
<path d="M400.308 261.43L380.377 281.36L400.308 301.291L420.238 281.36L400.308 261.43Z" fill="#FFBE79"/>
<path d="M350.497 211.616L330.566 231.547L350.497 251.477L370.427 231.547L350.497 211.616Z" fill="#FFBE79"/>
<path d="M300.685 261.427L280.755 281.356L300.685 301.286L320.614 281.356L300.685 261.427Z" fill="#FFBE79"/>
<path d="M350.492 311.248L330.564 331.177L350.494 351.106L370.422 331.178L350.492 311.248Z" fill="#FFBE79"/>
</g>
</g>
</g>
</g>
</g>
</g>
</g>
</g>
</g>
<defs>
<clipPath id="clip0_3_4">
<rect width="700" height="562.1" fill="white" transform="translate(0 0.135864)"/>
</clipPath>
<clipPath id="clip1_3_4">
<rect width="699.502" height="562.1" fill="white"/>
</clipPath>
<clipPath id="clip2_3_4">
<rect width="699.502" height="562.1" fill="white"/>
</clipPath>
<clipPath id="clip3_3_4">
<rect width="349.751" height="280.769" fill="white" transform="translate(174.876 140.666)"/>
</clipPath>
<clipPath id="clip4_3_4">
<rect width="349.751" height="280.769" fill="white" transform="translate(174.876 140.666)"/>
</clipPath>
<clipPath id="clip5_3_4">
<rect width="349.751" height="280.769" fill="white" transform="translate(174.876 140.666)"/>
</clipPath>
<clipPath id="clip6_3_4">
<rect width="349.751" height="280.769" fill="white" transform="translate(174.876 140.666)"/>
</clipPath>
<clipPath id="clip7_3_4">
<rect width="256.993" height="222.722" fill="white" transform="translate(222 170)"/>
</clipPath>
<clipPath id="clip8_3_4">
<rect width="173.761" height="139.489" fill="white" transform="translate(263.616 211.616)"/>
</clipPath>
</defs>
</svg>
